<svg id="Layer_1" data-name="Layer 1" xmlns="http://www.w3.org/2000/svg" viewBox="0 0 1280 1280"><defs><style>.cls-1,.cls-2,.cls-3,.cls-4,.cls-5{fill:none;stroke:#035d87;stroke-miterlimit:10;}.cls-1{stroke-width:16px;}.cls-2{stroke-width:17px;}.cls-3{stroke-width:12px;}.cls-4{stroke-width:15px;}.cls-5{stroke-width:4px;}</style></defs><polygon class="cls-1" points="691.44 861.51 481.13 861.51 439.22 722.09 733.35 722.09 691.44 861.51"/><rect class="cls-1" x="401.17" y="646.58" width="370.23" height="75.51"/><path class="cls-2" d="M584.78,643.06c2.6-63.3,5.6-127.3,31.6-186.3,1-2,0-3,1-5,10-19,20-37,36-51,9-8,18-13,28-19,3-2,7-2,10-3,36-12,74,1,103.79,20.52"/><rect class="cls-3" x="695.23" y="397.92" width="234.59" height="185.31" transform="matrix(0.96, -0.27, 0.27, 0.96, -101.22, 233.8)"/><ellipse class="cls-4" cx="812.52" cy="492.2" rx="64.39" ry="62.6"/><polyline class="cls-5" points="719.43 615.3 704.65 607.01 713.18 592.64"/><polyline class="cls-5" points="712.16 588.83 697.38 580.53 705.91 566.16"/><polyline class="cls-5" points="704.9 562.49 690.12 554.2 698.65 539.83"/><polyline class="cls-5" points="697.76 536.88 682.98 528.59 691.51 514.22"/><polyline class="cls-5" points="690.75 511.24 675.97 502.94 684.5 488.58"/><polyline class="cls-5" points="683.49 484.86 668.72 476.57 677.25 462.2"/><polyline class="cls-5" points="675.99 457.65 661.22 449.36 669.75 434.99"/><polyline class="cls-5" points="955 550.31 963.54 535.94 948.76 527.65"/><polyline class="cls-5" points="947.69 523.84 956.22 509.48 941.44 501.18"/><polyline class="cls-5" points="940.43 497.51 948.96 483.14 934.18 474.85"/><polyline class="cls-5" points="933.44 471.86 941.97 457.49 927.2 449.2"/><polyline class="cls-5" points="926.32 446.24 934.85 431.88 920.08 423.58"/><polyline class="cls-5" points="919.04 419.87 927.57 405.51 912.79 397.21"/><polyline class="cls-5" points="911.54 392.66 920.07 378.3 905.3 370"/><line class="cls-3" x1="591.65" y1="556.86" x2="470.66" y2="508.89"/><path class="cls-3" d="M541.63,465.81c28,11.08,36.47,46.34,19,78.76s-54.23,49.71-82.18,38.63-69.05-59.26-51.61-91.68S513.68,454.73,541.63,465.81Z"/><polyline class="cls-3" points="485.08 482.1 493.76 518.05 457.45 535.12"/><polyline class="cls-3" points="517.43 484.77 528.83 531.95 479.6 555.09"/></svg>